<?xml version="1.0" encoding="UTF-8" standalone="no"?>
<!DOCTYPE svg PUBLIC "-//W3C//DTD SVG 1.1//EN" "http://www.w3.org/Graphics/SVG/1.1/DTD/svg11.dtd">
<svg width="100%" height="100%" viewBox="0 0 431 380" version="1.1" xmlns="http://www.w3.org/2000/svg" xmlns:xlink="http://www.w3.org/1999/xlink" xml:space="preserve" xmlns:serif="http://www.serif.com/" style="fill-rule:evenodd;clip-rule:evenodd;stroke-linejoin:round;stroke-miterlimit:2;">
    <g transform="matrix(1,0,0,1,0,-26)">
        <path d="M217.875,159.668C193.638,159.668 173.989,179.316 173.989,203.554C173.989,227.791 193.637,247.44 217.875,247.44C242.112,247.44 261.761,227.792 261.761,203.554C261.761,179.316 242.113,159.668 217.875,159.668Z" style="fill-rule:nonzero;"/>
        <path d="M392.896,59.357L107.639,26.966C96.568,25.392 85.351,28.624 76.815,35.848C68.28,42.466 62.809,52.276 61.664,63.015L56.44,105.856L40.243,105.856C17.255,105.856 0.014,126.231 0.014,149.219L0.014,362.9C-0.565,384.821 16.736,403.062 38.658,403.641C39.186,403.655 39.715,403.658 40.243,403.651L327.067,403.651C350.055,403.651 370.953,385.888 370.953,362.9L370.953,354.541C378.08,353.164 384.841,350.317 390.806,346.182C399.271,339.055 404.691,328.962 405.957,317.97L429.99,105.856C432.44,82.815 415.905,62.088 392.896,59.357ZM350.055,236.99L236.161,303.341C226.381,309.135 214.002,308.086 205.336,300.729L147.867,250.051C131.396,235.898 107.322,235.03 89.875,247.961L20.912,298.116L20.912,149.219C20.912,137.725 28.749,126.754 40.243,126.754L327.067,126.754C339.347,127.263 349.264,136.955 350.055,149.219L350.055,236.99ZM409.112,103.035C409.105,103.104 409.099,103.174 409.091,103.243L384.536,315.357C384.578,320.857 382.07,326.066 377.744,329.463C375.654,331.553 370.952,332.598 370.952,333.643L370.952,149.219C370.127,125.418 350.875,106.395 327.066,105.856L77.337,105.856L82.039,65.105C83.059,59.828 85.818,55.046 89.876,51.521C94.458,48.353 99.998,46.876 105.55,47.341L390.285,80.255C401.773,81.346 410.203,91.545 409.112,103.035Z" style="fill-rule:nonzero;"/>
    </g>
</svg>
