<?xml version="1.0" encoding="UTF-8" standalone="no"?>
<!DOCTYPE svg PUBLIC "-//W3C//DTD SVG 1.1//EN" "http://www.w3.org/Graphics/SVG/1.1/DTD/svg11.dtd">
<svg width="100%" height="100%" viewBox="0 0 512 512" version="1.1" xmlns="http://www.w3.org/2000/svg" xmlns:xlink="http://www.w3.org/1999/xlink" xml:space="preserve" xmlns:serif="http://www.serif.com/" style="fill-rule:evenodd;clip-rule:evenodd;stroke-linejoin:round;stroke-miterlimit:2;">
    <path d="M237,342L237,190L180,190C168.953,190 160,181.047 160,170C160,158.953 168.953,150 180,150L332,150C343.047,150 352,158.953 352,170C352,181.047 343.047,190 332,190L277,190L277,342C277,353.047 268.047,362 257,362C245.953,362 237,353.047 237,342ZM512,20L512,100C512,111.047 503.047,120 492,120L462,120L462,287C462,298.047 463.047,307 452,307C440.953,307 442,298.047 442,287L442,120L412,120C400.953,120 392,111.047 392,100L392,70L120,70L120,100C120,111.047 111.047,120 100,120L70,120L70,392L100,392C111.047,392 120,400.953 120,412L120,442L284,442C295.047,442 304,440.953 304,452C304,463.047 295.047,462 284,462L120,462L120,492C120,503.047 111.047,512 100,512L20,512C8.953,512 0,503.047 0,492L0,412C0,400.953 8.953,392 20,392L50,392L50,120L20,120C8.953,120 0,111.047 0,100L0,20C0,8.953 8.953,0 20,0L100,0C111.047,0 120,8.953 120,20L120,50L392,50L392,20C392,8.953 400.953,0 412,0L492,0C503.047,0 512,8.953 512,20ZM511,356L511,462C511,489.57 488.57,512 461,512L353,512C344.883,512 337.574,507.098 334.496,499.586C331.414,492.078 333.184,483.453 338.961,477.754L476.961,341.754C482.703,336.098 491.285,334.438 498.723,337.551C506.16,340.664 511,347.938 511,356Z" style="fill-rule:nonzero;"/>
</svg>
