<?xml version="1.0" encoding="UTF-8" standalone="no"?>
<!DOCTYPE svg PUBLIC "-//W3C//DTD SVG 1.1//EN" "http://www.w3.org/Graphics/SVG/1.1/DTD/svg11.dtd">
<svg width="100%" height="100%" viewBox="0 0 487 450" version="1.1" xmlns="http://www.w3.org/2000/svg" xmlns:xlink="http://www.w3.org/1999/xlink" xml:space="preserve" xmlns:serif="http://www.serif.com/" style="fill-rule:evenodd;clip-rule:evenodd;stroke-linejoin:round;stroke-miterlimit:2;">
    <g transform="matrix(1,0,0,1,0,-17)">
        <g transform="matrix(1.38521,0,0,1.0257,-91.9619,5.59335)">
            <path d="M257.06,362.496L257.06,428.579C257.06,437.091 247.251,443.9 238.74,443.9C230.228,443.9 220.419,437.091 220.419,428.579L220.419,362.496" style="fill:none;fill-rule:nonzero;stroke:white;stroke-width:11.49px;"/>
        </g>
        <g transform="matrix(1,0,0,1,0,17)">
            <path d="M187.9,362.3L101.1,362.3C73.9,360.8 48.4,347.9 29.1,326.1C10.3,304.8 0,277.9 0,250.2C0,215.9 16.7,183.7 44.2,163.7C43.2,158.5 42.6,153.2 42.6,147.7C42.6,105.2 77.2,70.6 119.7,70.6C124.7,70.6 129.7,71.1 134.5,72C145.6,52.6 161.3,36.1 180.2,23.9C202.9,9.2 229.4,1.4 256.6,1.4C291.8,1.4 325.6,14.5 351.6,38.3C375,59.7 390.3,87.9 395.5,118.8C447.9,132.6 486.2,182.5 486.3,238.6C486.3,269.6 474.8,299.4 453.7,322.6C432.5,346 404.001,360 373.5,362.2L298.3,362.2L257.06,362.237L257.06,189.617L309.101,236.658C315.003,242.673 327.649,242.673 333.664,236.658C339.679,230.644 341.679,216.997 335.664,210.982L249.521,124.839C246.684,122.002 242.712,120.3 238.74,120.3C234.768,120.3 230.796,121.889 227.958,124.839L141.815,210.982C135.801,216.997 137.801,232.644 143.815,238.658C146.766,241.609 153.738,243.198 157.597,243.198C161.455,243.198 165.427,241.722 168.378,238.658L220.419,189.617L220.419,362.271L187.9,362.3Z" style="fill:white;fill-rule:nonzero;"/>
        </g>
    </g>
</svg>
