<?xml version="1.0" encoding="UTF-8" standalone="no"?>
<!DOCTYPE svg PUBLIC "-//W3C//DTD SVG 1.1//EN" "http://www.w3.org/Graphics/SVG/1.1/DTD/svg11.dtd">
<svg width="100%" height="100%" viewBox="0 0 486 486" version="1.1" xmlns="http://www.w3.org/2000/svg" xmlns:xlink="http://www.w3.org/1999/xlink" xml:space="preserve" xmlns:serif="http://www.serif.com/" style="fill-rule:evenodd;clip-rule:evenodd;stroke-linejoin:round;stroke-miterlimit:1.41421;">
    <path id="XMLID_49_" d="M298.4,424.7L298.4,438.9C298.4,450.2 290.1,459.6 279.3,461.2L275.8,474.1C273.9,481.1 267.6,486 260.3,486L225.6,486C218.3,486 212,481.1 210.1,474.1L206.7,461.2C195.8,459.5 187.5,450.2 187.5,438.8L187.5,424.6C187.5,417 193.6,410.9 201.2,410.9L284.7,410.9C292.3,411 298.4,417.1 298.4,424.7ZM362.7,233.3C362.7,265.6 349.9,294.9 329.1,316.4C313.3,332.8 303.1,353.7 299.7,376C298.2,385.6 289.9,392.7 280.1,392.7L205.8,392.7C196.1,392.7 187.7,385.7 186.3,376.1C182.8,353.8 172.5,332.6 156.7,316.3C136.3,295.1 123.6,266.3 123.3,234.6C122.6,168 175.6,114.1 242.2,113.6C308.7,113.1 362.7,166.9 362.7,233.3ZM256.5,160.8C256.5,153.4 250.5,147.3 243,147.3C195.4,147.3 156.6,186 156.6,233.7C156.6,241.1 162.6,247.2 170.1,247.2C177.5,247.2 183.6,241.2 183.6,233.7C183.6,200.9 210.3,174.3 243,174.3C250.5,174.3 256.5,168.3 256.5,160.8ZM243,74.3C250.4,74.3 256.5,68.3 256.5,60.8L256.5,13.5C256.5,6.1 250.5,0 243,0C235.5,0 229.5,6 229.5,13.5L229.5,60.8C229.5,68.3 235.6,74.3 243,74.3ZM84.1,233.2C84.1,225.8 78.1,219.7 70.6,219.7L23.3,219.7C15.9,219.7 9.8,225.7 9.8,233.2C9.8,240.6 15.8,246.7 23.3,246.7L70.6,246.7C78.1,246.7 84.1,240.7 84.1,233.2ZM462.7,219.7L415.4,219.7C408,219.7 401.9,225.7 401.9,233.2C401.9,240.6 407.9,246.7 415.4,246.7L462.7,246.7C470.1,246.7 476.2,240.7 476.2,233.2C476.2,225.8 470.2,219.7 462.7,219.7ZM111.6,345.6L78.1,379.1C72.8,384.4 72.8,392.9 78.1,398.2C80.7,400.8 84.2,402.1 87.6,402.1C91,402.1 94.5,400.8 97.1,398.2L130.6,364.7C135.9,359.4 135.9,350.9 130.6,345.6C125.4,340.3 116.8,340.3 111.6,345.6ZM364.9,124.8C368.3,124.8 371.8,123.5 374.4,120.9L407.9,87.4C413.2,82.1 413.2,73.6 407.9,68.3C402.6,63 394.1,63 388.8,68.3L355.3,101.8C350,107.1 350,115.6 355.3,120.9C358,123.5 361.4,124.8 364.9,124.8ZM111.6,120.8C114.2,123.4 117.7,124.7 121.1,124.7C124.5,124.7 128,123.4 130.6,120.8C135.9,115.5 135.9,107 130.6,101.7L97.1,68.2C91.8,62.9 83.3,62.9 78,68.2C72.7,73.5 72.7,82 78,87.3L111.6,120.8ZM374.4,345.6C369.1,340.3 360.6,340.3 355.3,345.6C350,350.9 350,359.4 355.3,364.7L388.8,398.2C391.4,400.8 394.9,402.1 398.3,402.1C401.7,402.1 405.2,400.8 407.8,398.2C413.1,392.9 413.1,384.4 407.8,379.1L374.4,345.6Z" style="fill:white;fill-rule:nonzero;"/>
</svg>
