<?xml version="1.0" encoding="UTF-8" standalone="no"?>
<!DOCTYPE svg PUBLIC "-//W3C//DTD SVG 1.1//EN" "http://www.w3.org/Graphics/SVG/1.1/DTD/svg11.dtd">
<svg width="100%" height="100%" viewBox="0 0 479 479" version="1.1" xmlns="http://www.w3.org/2000/svg" xmlns:xlink="http://www.w3.org/1999/xlink" xml:space="preserve" xmlns:serif="http://www.serif.com/" style="fill-rule:evenodd;clip-rule:evenodd;stroke-linejoin:round;stroke-miterlimit:2;">
    <path d="M239.4,136.001C182.4,136.001 136.1,182.301 136.1,239.301C136.1,296.301 182.4,342.601 239.4,342.601C296.4,342.601 342.7,296.301 342.7,239.301C342.7,182.301 296.4,136.001 239.4,136.001ZM239.4,315.601C197.3,315.601 163.1,281.401 163.1,239.301C163.1,197.201 197.3,163.001 239.4,163.001C281.5,163.001 315.7,197.201 315.7,239.301C315.7,281.401 281.5,315.601 239.4,315.601Z" style="fill:white;fill-rule:nonzero;"/>
    <path d="M260.4,478.701L218.2,478.701C203.7,478.701 191.4,468.301 189,454.001L183.4,420.401C172.5,417.001 161.9,412.701 151.8,407.401L123.7,427.401C118.7,431.001 112.8,432.901 106.6,432.901C98.7,432.901 91.3,429.801 85.7,424.201L55.9,394.401C45.6,384.201 44.3,368.101 52.7,356.301L72.4,328.901C66.8,318.501 62.2,307.601 58.7,296.401L24.7,290.601C10.4,288.201 0,275.901 0,261.401L0,219.301C0,204.801 10.4,192.501 24.7,190.101L57.9,184.501C61.3,173.201 65.7,162.301 71.2,151.801L51.2,123.701C42.8,111.901 44.2,95.801 54.4,85.601L84.3,55.801C89.8,50.201 97.3,47.101 105.2,47.101C111.4,47.101 117.4,49.001 122.4,52.601L149.9,72.401C160.3,66.801 171.2,62.201 182.4,58.701L188.2,24.701C190.6,10.401 202.9,0.001 217.4,0.001L259.5,0.001C274,0.001 286.3,10.401 288.7,24.701L294.3,57.901C306,61.401 317.3,66.101 328.1,71.801L355.9,52.001C360.9,48.401 366.8,46.501 373,46.501C380.9,46.501 388.3,49.601 393.9,55.201L423.7,85.001C434,95.201 435.3,111.301 426.9,123.101L407.1,150.801C412.6,161.201 417.1,172.101 420.6,183.401L454.2,189.101C468.5,191.501 478.9,203.801 478.7,218.301L478.7,260.401C478.7,274.901 468.3,287.201 454,289.601L420.4,295.201C417,306.401 412.4,317.301 406.9,327.801L426.7,355.601C435.1,367.401 433.7,383.501 423.5,393.701L393.7,423.501C388.1,429.101 380.7,432.201 372.8,432.201C366.6,432.201 360.6,430.301 355.6,426.701L327.9,406.901C317.5,412.401 306.6,416.901 295.3,420.401L289.6,454.001C287.2,468.301 274.9,478.701 260.4,478.701ZM239.351,114.351C308.341,114.351 364.351,170.362 364.351,239.351C364.351,308.34 308.341,364.351 239.351,364.351C170.362,364.351 114.351,308.34 114.351,239.351C114.351,170.362 170.362,114.351 239.351,114.351Z" style="fill:white;"/>
</svg>
