<?xml version="1.0" encoding="UTF-8" standalone="no"?>
<svg
   xmlns:dc="http://purl.org/dc/elements/1.1/"
   xmlns:cc="http://creativecommons.org/ns#"
   xmlns:rdf="http://www.w3.org/1999/02/22-rdf-syntax-ns#"
   xmlns:svg="http://www.w3.org/2000/svg"
   xmlns="http://www.w3.org/2000/svg"
   xmlns:sodipodi="http://sodipodi.sourceforge.net/DTD/sodipodi-0.dtd"
   xmlns:inkscape="http://www.inkscape.org/namespaces/inkscape"
   sodipodi:docname="size.svg"
   inkscape:version="1.0beta1 (76ce730, 2019-10-19)"
   id="svg8"
   version="1.1"
   viewBox="0 0 135.46687 135.46718"
   height="135.46718mm"
   width="135.46687mm">
  <defs
     id="defs2" />
  <sodipodi:namedview
     inkscape:window-maximized="0"
     inkscape:window-y="80"
     inkscape:window-x="0"
     inkscape:window-height="880"
     inkscape:window-width="1600"
     fit-margin-bottom="0"
     fit-margin-right="0"
     fit-margin-left="0"
     fit-margin-top="0"
     showgrid="false"
     inkscape:document-rotation="0"
     inkscape:current-layer="layer1"
     inkscape:document-units="mm"
     inkscape:cy="221.73466"
     inkscape:cx="123.47984"
     inkscape:zoom="0.98994949"
     inkscape:pageshadow="2"
     inkscape:pageopacity="0.0"
     borderopacity="1.0"
     bordercolor="#666666"
     pagecolor="#ffffff"
     id="base" />
  <metadata
     id="metadata5">
    <rdf:RDF>
      <cc:Work
         rdf:about="">
        <dc:format>image/svg+xml</dc:format>
        <dc:type
           rdf:resource="http://purl.org/dc/dcmitype/StillImage" />
        <dc:title></dc:title>
      </cc:Work>
    </rdf:RDF>
  </metadata>
  <g
     transform="translate(-30.54056,-41.123586)"
     id="layer1"
     inkscape:groupmode="layer"
     inkscape:label="Layer 1">
    <path
       inkscape:connector-curvature="0"
       transform="scale(0.26458333)"
       d="m 516.49219,155.42773 c -2.1825,0 -4.36471,0.83346 -6.03321,2.50196 L 117.93164,550.45703 c -3.337,3.33698 -3.337,8.73138 0,12.06836 l 102.4043,102.4043 c 1.596,1.60399 3.7722,2.5 6.0332,2.5 2.261,0 4.4292,-0.89601 6.0332,-2.5 L 624.92969,272.40234 c 1.60399,-1.596 2.5,-3.7722 2.5,-6.0332 0.002,-2.262 -0.89406,-4.4292 -2.49805,-6.0332 L 522.52539,157.92969 c -1.66849,-1.6685 -3.8507,-2.50196 -6.0332,-2.50196 z m 8.56836,76.79688 c 14.11502,0 25.59961,11.48756 25.59961,25.60156 0,14.115 -11.48459,25.60156 -25.59961,25.60156 -14.11499,0 -25.60157,-11.48656 -25.60157,-25.60156 0,-14.115 11.48658,-25.60156 25.60157,-25.60156 z m -79.31055,2.50391 25.60156,25.60351 -12.06836,12.06641 -25.60156,-25.60156 z m 79.31055,14.5625 c -4.711,0 -8.53516,3.83315 -8.53516,8.53515 0,4.702 3.82416,8.53321 8.53516,8.53321 4.71099,0 8.5332,-3.83021 8.5332,-8.53321 0,-4.702 -3.82221,-8.53515 -8.5332,-8.53515 z m -104.91602,11.04101 34.13477,34.13477 -12.06836,12.06836 -34.13477,-34.13477 z m -25.59765,25.5918 25.60351,25.60351 -12.06836,12.06836 -25.60156,-25.60351 z m -25.60547,25.59765 34.13476,34.13477 -12.06836,12.06836 -34.13476,-34.13672 z m -25.59571,25.59961 25.60157,25.60352 -12.06641,12.06836 -25.60352,-25.60352 z m -25.60547,25.59375 34.13477,34.13672 -12.06836,12.06641 -34.13476,-34.13477 z m -25.60156,25.5918 25.59961,25.59375 -12.0664,12.07031 -25.59961,-25.59375 z m -25.60156,25.62109 34.13477,34.13477 -12.06836,12.06836 -34.13477,-34.13477 z m -25.59766,25.59766 25.60352,25.60352 -12.06836,12.06836 -25.60156,-25.60352 z m -25.60351,25.60547 34.13476,34.13476 -12.06836,12.06836 -34.13476,-34.13476 z m -25.58008,25.60937 25.60352,25.60157 -12.06836,12.06836 -25.60352,-25.60352 z m -25.625,25.59571 34.13476,34.13476 -12.06835,12.06836 -34.13477,-34.13476 z"
       style="clip-rule:evenodd;opacity:1;fill:#ffffff;fill-opacity:1;fill-rule:nonzero;stroke-width:0.999999;stroke-linejoin:round;stroke-miterlimit:1.41421;stop-opacity:1"
       id="path939" />
    <g
       id="g34"
       transform="matrix(0.18708687,-0.18708687,0.18708687,0.18708687,38.303374,111.79465)"
       style="clip-rule:evenodd;opacity:1;fill:#000000;fill-opacity:1;fill-rule:evenodd;stroke-linejoin:round;stroke-miterlimit:1.41421;stop-opacity:1">
        
    </g>
    <g
       id="g38"
       transform="matrix(0.18708687,-0.18708687,0.18708687,0.18708687,31.061093,110.11692)"
       style="clip-rule:evenodd;opacity:1;fill:#000000;fill-opacity:1;fill-rule:evenodd;stroke-linejoin:round;stroke-miterlimit:1.41421;stop-opacity:1">
        
    </g>
    <g
       id="g42"
       transform="matrix(0.18708687,-0.18708687,0.18708687,0.18708687,24.757368,106.18283)"
       style="clip-rule:evenodd;opacity:1;fill:#000000;fill-opacity:1;fill-rule:evenodd;stroke-linejoin:round;stroke-miterlimit:1.41421;stop-opacity:1">
        
    </g>
    <g
       id="g46"
       transform="matrix(0.18708687,-0.18708687,0.18708687,0.18708687,17.516702,104.50458)"
       style="clip-rule:evenodd;opacity:1;fill:#000000;fill-opacity:1;fill-rule:evenodd;stroke-linejoin:round;stroke-miterlimit:1.41421;stop-opacity:1">
        
    </g>
    <g
       id="g50"
       transform="matrix(0.18708687,-0.18708687,0.18708687,0.18708687,11.211258,100.57102)"
       style="clip-rule:evenodd;opacity:1;fill:#000000;fill-opacity:1;fill-rule:evenodd;stroke-linejoin:round;stroke-miterlimit:1.41421;stop-opacity:1">
        
    </g>
    <g
       id="g54"
       transform="matrix(0.18708687,-0.18708687,0.18708687,0.18708687,3.9705908,98.892505)"
       style="clip-rule:evenodd;opacity:1;fill:#000000;fill-opacity:1;fill-rule:evenodd;stroke-linejoin:round;stroke-miterlimit:1.41421;stop-opacity:1">
        
    </g>
    <g
       id="g58"
       transform="matrix(0.18706041,-0.18711333,0.18711333,0.18706041,-2.3346945,94.968469)"
       style="clip-rule:evenodd;opacity:1;fill:#000000;fill-opacity:1;fill-rule:evenodd;stroke-linejoin:round;stroke-miterlimit:1.41421;stop-opacity:1">
        
    </g>
    <g
       id="g62"
       transform="matrix(0.18708687,-0.18708687,0.18708687,0.18708687,-9.5787215,93.281751)"
       style="clip-rule:evenodd;opacity:1;fill:#000000;fill-opacity:1;fill-rule:evenodd;stroke-linejoin:round;stroke-miterlimit:1.41421;stop-opacity:1">
        
    </g>
    <g
       id="g66"
       transform="matrix(0.18708687,-0.18708687,0.18708687,0.18708687,-15.884007,89.347661)"
       style="clip-rule:evenodd;opacity:1;fill:#000000;fill-opacity:1;fill-rule:evenodd;stroke-linejoin:round;stroke-miterlimit:1.41421;stop-opacity:1">
        
    </g>
    <g
       id="g70"
       transform="matrix(0.18708687,-0.18708687,0.18708687,0.18708687,-23.126182,87.670203)"
       style="clip-rule:evenodd;opacity:1;fill:#000000;fill-opacity:1;fill-rule:evenodd;stroke-linejoin:round;stroke-miterlimit:1.41421;stop-opacity:1">
        
    </g>
    <g
       id="g74"
       transform="matrix(0.18708687,-0.18708687,0.18708687,0.18708687,-29.431996,83.740611)"
       style="clip-rule:evenodd;opacity:1;fill:#000000;fill-opacity:1;fill-rule:evenodd;stroke-linejoin:round;stroke-miterlimit:1.41421;stop-opacity:1">
        
    </g>
    <g
       id="g78"
       transform="matrix(0.18708687,-0.18708687,0.18708687,0.18708687,-36.674171,82.059184)"
       style="clip-rule:evenodd;opacity:1;fill:#000000;fill-opacity:1;fill-rule:evenodd;stroke-linejoin:round;stroke-miterlimit:1.41421;stop-opacity:1">
        
    </g>
  </g>
</svg>
